<svg width="899" height="232" viewBox="0 0 899 232" fill="none" xmlns="http://www.w3.org/2000/svg">
<g filter="url(#filter0_d_270_246)">
<path d="M364.242 129.168C365.87 130.918 367.176 132.94 368.103 135.14C368.974 137.261 369.429 139.529 369.443 141.82C369.433 144.164 368.978 146.485 368.103 148.66C367.224 150.858 365.911 152.857 364.242 154.539C358.618 161.315 351.62 166.828 343.708 170.718C335.527 174.734 326.514 176.779 317.396 176.69C309.282 176.737 301.244 175.128 293.778 171.961C286.539 168.917 279.962 164.502 274.41 158.961C268.859 153.405 264.44 146.832 261.394 139.602C258.229 132.139 256.624 124.111 256.676 116.008C256.625 107.906 258.23 99.8778 261.394 92.414C264.428 85.2059 268.849 78.6604 274.41 73.1483C279.994 67.6463 286.563 63.2371 293.778 60.149C301.228 56.9204 309.272 55.2777 317.396 55.326C326.384 55.2315 335.257 57.3518 343.225 61.4984C350.966 65.5239 357.842 71.0203 363.465 77.6776C365.107 79.4164 366.415 81.4405 367.325 83.6496C368.205 85.7677 368.661 88.0372 368.666 90.3298C368.661 92.6743 368.206 94.9965 367.325 97.1704C366.456 99.3729 365.142 101.374 363.465 103.049C361.608 104.981 359.308 106.434 356.763 107.284C354.368 108.054 351.833 108.287 349.337 107.965C346.837 107.644 344.418 106.86 342.206 105.654C339.977 104.441 337.984 102.839 336.322 100.924C333.956 98.1811 331.158 95.8394 328.038 93.9905C324.84 92.0702 321.17 91.0714 317.436 91.1048C314.147 91.0914 310.893 91.7792 307.892 93.1222C304.951 94.4161 302.299 96.2829 300.091 98.613C297.873 100.973 296.106 103.717 294.877 106.709C293.602 109.762 292.946 113.036 292.947 116.342C292.94 119.615 293.596 122.855 294.877 125.868C296.136 128.824 297.957 131.51 300.239 133.777C302.496 136.011 305.138 137.822 308.04 139.121C310.984 140.464 314.185 141.157 317.423 141.152C321.509 141.158 325.504 139.948 328.896 137.678C332.226 135.532 335.297 133.013 338.051 130.17C339.76 128.176 341.952 126.649 344.418 125.734C346.759 124.86 349.237 124.407 351.736 124.398C354.101 124.385 356.449 124.779 358.68 125.561C360.787 126.323 362.69 127.557 364.242 129.168V129.168Z" fill="white"/>
<path d="M384.322 95.8479C384.208 92.7101 385.152 89.6245 387.002 87.0836C387.93 85.892 389.135 84.9441 390.513 84.3225C391.891 83.7008 393.401 83.4239 394.911 83.5161C397.686 83.5928 400.361 84.5736 402.524 86.3086C404.746 87.8322 406.511 89.9287 407.631 92.3742C410.923 89.5894 414.631 87.3354 418.622 85.694C422.554 84.1813 426.739 83.4288 430.954 83.4764C434.128 83.37 437.302 83.6616 440.403 84.3446C442.609 84.9823 444.739 85.8557 446.757 86.9498C449.665 88.4339 452.126 90.6608 453.888 93.4029C455.779 96.1571 456.788 99.4177 456.783 102.755C456.798 105.006 456.341 107.236 455.443 109.301C453.632 113.43 450.331 116.73 446.194 118.547C444.128 119.449 441.894 119.904 439.639 119.883C437.927 119.867 436.218 119.706 434.533 119.402C432.142 119.044 429.725 118.883 427.308 118.921C424.341 118.921 422.474 120.043 421.705 122.288C420.898 124.809 420.509 127.444 420.552 130.09L420.164 158.801C420.178 161.187 419.689 163.549 418.729 165.735C416.886 170.009 413.471 173.417 409.186 175.261C407 176.227 404.634 176.723 402.243 176.717C399.863 176.732 397.507 176.25 395.326 175.301C393.203 174.402 391.266 173.115 389.616 171.507C387.986 169.873 386.681 167.946 385.769 165.829C384.805 163.644 384.312 161.282 384.322 158.895V95.8479Z" fill="white"/>
<path d="M463.069 130.09C463.03 123.869 464.276 117.707 466.729 111.987C471.489 100.816 480.398 91.9119 491.593 87.1369C497.32 84.7287 503.472 83.488 509.688 83.488C515.904 83.488 522.056 84.7287 527.783 87.1369C538.978 91.9119 547.887 100.816 552.647 111.987C555.071 117.719 556.32 123.876 556.32 130.097C556.32 136.317 555.071 142.475 552.647 148.207C547.887 159.378 538.978 168.281 527.783 173.056C522.056 175.465 515.904 176.705 509.688 176.705C503.472 176.705 497.32 175.465 491.593 173.056C480.398 168.281 471.489 159.378 466.729 148.207C464.274 142.482 463.028 136.315 463.069 130.09V130.09ZM499.26 130.09C499.234 132.973 500.301 135.76 502.249 137.892C503.171 138.954 504.312 139.804 505.593 140.388C506.874 140.971 508.266 141.273 509.675 141.273C511.083 141.273 512.475 140.971 513.756 140.388C515.038 139.804 516.178 138.954 517.1 137.892C519.026 135.747 520.09 132.969 520.09 130.09C520.09 127.211 519.026 124.433 517.1 122.287C516.176 121.23 515.034 120.383 513.753 119.802C512.473 119.222 511.082 118.921 509.675 118.921C508.267 118.921 506.877 119.222 505.596 119.802C504.315 120.383 503.174 121.23 502.249 122.287C500.32 124.429 499.268 127.213 499.3 130.09H499.26Z" fill="white"/>
<path d="M563.826 107.378C563.772 105.09 564.19 102.815 565.052 100.694C565.914 98.5736 567.203 96.6513 568.839 95.046C572.174 91.7279 576.661 89.8146 581.372 89.7019C582.271 84.4789 584.086 79.4543 586.733 74.8586C589.204 70.6332 592.377 66.8567 596.116 63.6896C599.804 60.5968 604.016 58.1851 608.555 56.5685C613.323 54.8837 618.334 53.9813 623.393 53.8964H624.157C628.565 53.8964 632.793 55.6419 635.91 58.7488C639.027 61.8557 640.778 66.0694 640.778 70.4632C640.778 74.8569 639.027 79.0708 635.91 82.1777C632.793 85.2845 628.565 87.0299 624.157 87.0299C623.165 87.0167 622.185 87.255 621.311 87.7224C620.436 88.1897 619.695 88.8709 619.157 89.7019H620.498C622.867 89.6559 625.222 90.0837 627.423 90.9603C629.624 91.8369 631.626 93.1446 633.312 94.8056C635.001 96.4629 636.342 98.4385 637.258 100.617C638.174 102.796 638.645 105.135 638.645 107.498C638.645 109.86 638.174 112.199 637.258 114.378C636.342 116.557 635.001 118.533 633.312 120.19C631.612 121.823 629.604 123.105 627.405 123.963C625.206 124.821 622.859 125.236 620.498 125.187H618.568C617.906 125.184 617.251 125.057 616.637 124.813V158.707C616.682 161.082 616.244 163.442 615.35 165.643C614.456 167.845 613.125 169.844 611.437 171.52C609.776 173.257 607.771 174.629 605.548 175.549C603.326 176.469 600.935 176.917 598.529 176.864C596.071 176.883 593.637 176.387 591.384 175.408C587.1 173.568 583.688 170.158 581.854 165.882C580.875 163.631 580.382 161.201 580.407 158.748V125.227C575.899 124.967 571.658 123.009 568.544 119.749C566.969 118.105 565.74 116.164 564.929 114.039C564.119 111.914 563.744 109.649 563.826 107.378Z" fill="white"/>
<path d="M647.882 107.378C647.829 105.091 648.245 102.818 649.105 100.697C649.965 98.5769 651.25 96.6538 652.882 95.046C656.217 91.7291 660.704 89.816 665.414 89.7019C666.319 84.4804 668.134 79.4567 670.776 74.8586C673.246 70.6327 676.419 66.8561 680.159 63.6896C683.849 60.5996 688.06 58.1882 692.597 56.5685C697.37 54.8825 702.386 53.9801 707.449 53.8964H708.213C712.621 53.8964 716.849 55.6419 719.966 58.7488C723.083 61.8557 724.834 66.0694 724.834 70.4632C724.834 74.8569 723.083 79.0708 719.966 82.1777C716.849 85.2845 712.621 87.0299 708.213 87.0299C707.219 87.0182 706.239 87.2568 705.362 87.724C704.486 88.1911 703.742 88.8716 703.2 89.7019H704.54C706.91 89.6574 709.264 90.0861 711.465 90.9626C713.666 91.8391 715.668 93.1458 717.354 94.8056C719.044 96.4629 720.385 98.4384 721.301 100.617C722.216 102.796 722.688 105.135 722.688 107.498C722.688 109.86 722.216 112.199 721.301 114.378C720.385 116.557 719.044 118.533 717.354 120.19C715.654 121.823 713.646 123.105 711.447 123.962C709.248 124.819 706.901 125.236 704.54 125.187H702.61C701.949 125.186 701.294 125.059 700.68 124.813V158.707C700.724 161.082 700.286 163.442 699.392 165.643C698.499 167.845 697.168 169.844 695.479 171.52C692.896 174.088 689.6 175.826 686.017 176.512C682.434 177.198 678.727 176.799 675.373 175.368C673.253 174.453 671.325 173.147 669.69 171.52C668.06 169.883 666.751 167.957 665.83 165.842C664.851 163.591 664.358 161.16 664.382 158.707V125.187C659.878 124.926 655.642 122.968 652.533 119.709C650.975 118.065 649.761 116.127 648.962 114.01C648.164 111.893 647.796 109.638 647.882 107.378V107.378Z" fill="white"/>
<path d="M827.333 164.493C827.442 167.63 826.499 170.714 824.652 173.257C823.726 174.449 822.521 175.398 821.142 176.019C819.764 176.641 818.254 176.917 816.744 176.824C813.966 176.755 811.29 175.774 809.13 174.032C806.903 172.51 805.133 170.414 804.01 167.966C800.03 170.937 795.563 173.198 790.807 174.646C786.29 176.08 781.581 176.828 776.84 176.864C770.792 176.947 764.801 175.697 759.294 173.203C754.138 170.854 749.538 167.444 745.797 163.197C741.999 158.834 739.058 153.798 737.124 148.353C735.043 142.545 733.999 136.418 734.042 130.25V101.552C734.029 99.1653 734.523 96.8026 735.489 94.6185C736.41 92.5021 737.714 90.5728 739.336 88.927C740.976 87.2996 742.908 85.9944 745.033 85.0794C747.221 84.1278 749.582 83.6367 751.969 83.6367C754.356 83.6367 756.718 84.1278 758.906 85.0794C763.196 86.9228 766.612 90.3373 768.449 94.6185C769.416 96.8026 769.909 99.1653 769.897 101.552L770.286 130.25C770.255 133.115 771.28 135.892 773.168 138.053C774.054 139.13 775.175 139.994 776.445 140.577C777.715 141.16 779.101 141.448 780.499 141.419C781.923 141.435 783.332 141.142 784.631 140.56C785.929 139.979 787.085 139.123 788.019 138.053C790.017 135.945 791.122 133.15 791.102 130.25L791.491 101.552C791.478 99.1653 791.972 96.8026 792.938 94.6185C794.766 90.3351 798.179 86.9187 802.468 85.0794C804.659 84.1306 807.023 83.641 809.412 83.641C811.801 83.641 814.164 84.1306 816.355 85.0794C820.645 86.9228 824.061 90.3373 825.899 94.6185C826.865 96.8026 827.358 99.1653 827.346 101.552V164.533L827.333 164.493Z" fill="white"/>
<path d="M842.225 71.8926C842.18 69.5179 842.618 67.1589 843.512 64.9571C844.406 62.7553 845.737 60.7563 847.425 59.0802C849.092 57.3479 851.1 55.9787 853.324 55.0589C855.548 54.1391 857.939 53.6887 860.346 53.7361C862.766 53.732 865.161 54.2232 867.383 55.1791C871.749 56.9912 875.215 60.4554 877.021 64.8118C877.973 67.0379 878.466 69.4326 878.468 71.8527V158.333C878.52 160.737 878.069 163.126 877.147 165.347C876.224 167.569 874.848 169.575 873.107 171.24C870.575 173.801 867.331 175.548 863.794 176.256C860.258 176.963 856.589 176.6 853.261 175.212C849.933 173.823 847.099 171.474 845.122 168.466C843.146 165.458 842.118 161.929 842.171 158.333L842.225 71.8926Z" fill="white"/>
<path d="M202.31 62.1852C207.221 57.0884 209.959 50.2935 209.95 43.2271C209.95 35.9455 207.048 28.962 201.882 23.8132C196.717 18.6643 189.711 15.7717 182.405 15.7717C175.728 15.7709 169.279 18.1983 164.27 22.5988C149.782 14.3344 133.378 9.99096 116.686 10C104.038 9.99826 91.5129 12.48 79.8268 17.3033C68.1408 22.1266 57.5224 29.1972 48.5781 38.1112C39.6338 47.0251 32.5386 57.6081 27.6979 69.2554C22.8572 80.9027 20.3657 93.3863 20.3657 105.993C20.3657 118.601 22.8571 131.085 27.6976 142.733C32.5382 154.382 39.6331 164.965 48.5773 173.881C57.5214 182.796 68.1397 189.867 79.8258 194.692C91.5119 199.517 104.037 202 116.686 202C129.334 202 141.859 199.517 153.544 194.692C165.23 189.867 175.847 182.795 184.79 173.88C193.733 164.964 200.827 154.381 205.666 142.733C210.505 131.085 212.995 118.601 212.993 105.993C212.991 90.7502 209.328 75.7289 202.31 62.1852V62.1852ZM116.686 181.292C96.6504 181.292 77.4354 173.359 63.2681 159.237C49.1008 145.116 41.1417 125.964 41.1417 105.993C41.1417 96.1058 43.0958 86.3148 46.8925 77.1799C50.6891 68.0451 56.2538 59.7453 63.2689 52.7543C70.2841 45.7632 78.6121 40.2181 87.7775 36.4354C96.9429 32.6528 106.766 30.7066 116.686 30.7084C130.153 30.7107 143.37 34.3241 154.954 41.1696C154.954 41.8509 154.86 42.5056 154.86 43.2271C154.86 50.5099 157.762 57.4946 162.927 62.6456C168.092 67.7966 175.099 70.6923 182.405 70.6958C182.727 70.6958 183.035 70.6958 183.357 70.6958C189.188 81.5717 192.232 93.7155 192.217 106.047C192.192 126.009 184.214 145.144 170.038 159.245C155.861 173.345 136.646 181.256 116.619 181.238L116.686 181.292Z" fill="white"/>
<path d="M116.842 140.1C136.195 140.1 151.883 124.732 151.883 105.774C151.883 86.8161 136.195 71.4478 116.842 71.4478C97.4889 71.4478 81.8003 86.8161 81.8003 105.774C81.8003 124.732 97.4889 140.1 116.842 140.1Z" fill="white"/>
</g>
<defs>
<filter id="filter0_d_270_246" x="0.365723" y="0" width="898.106" height="232" filterUnits="userSpaceOnUse" color-interpolation-filters="sRGB">
<feFlood flood-opacity="0" result="BackgroundImageFix"/>
<feColorMatrix in="SourceAlpha" type="matrix" values="0 0 0 0 0 0 0 0 0 0 0 0 0 0 0 0 0 0 127 0" result="hardAlpha"/>
<feOffset dy="10"/>
<feGaussianBlur stdDeviation="10"/>
<feComposite in2="hardAlpha" operator="out"/>
<feColorMatrix type="matrix" values="0 0 0 0 0.398143 0 0 0 0 0.228212 0 0 0 0 0.995833 0 0 0 0.3 0"/>
<feBlend mode="normal" in2="BackgroundImageFix" result="effect1_dropShadow_270_246"/>
<feBlend mode="normal" in="SourceGraphic" in2="effect1_dropShadow_270_246" result="shape"/>
</filter>
</defs>
</svg>
