<svg width="510" height="155" viewBox="0 0 510 155" fill="none" xmlns="http://www.w3.org/2000/svg">
<g filter="url(#filter0_d_270_199)">
<path d="M60.9638 119.94H458.607C466.93 119.933 474.91 116.911 480.796 111.539C486.681 106.167 489.991 98.8839 490 91.2868V28.6537C489.987 21.0578 486.676 13.7765 480.791 8.40539C474.906 3.03431 466.929 0.011659 458.607 0H60.9638C52.6417 0.011659 44.6642 3.03431 38.7796 8.40539C32.895 13.7765 29.5834 21.0578 29.5706 28.6537V76.5926C29.5706 94.2257 23.7427 106.334 11.7811 113.534C11.0708 113.941 10.5277 114.55 10.2365 115.267C9.94531 115.985 9.92234 116.77 10.1712 117.501C10.3957 118.231 10.8796 118.873 11.5469 119.325C12.2141 119.777 13.027 120.015 13.8579 119.999L60.9638 119.94Z" fill="#864CFF"/>
</g>
<defs>
<filter id="filter0_d_270_199" x="0" y="0" width="510" height="155" filterUnits="userSpaceOnUse" color-interpolation-filters="sRGB">
<feFlood flood-opacity="0" result="BackgroundImageFix"/>
<feColorMatrix in="SourceAlpha" type="matrix" values="0 0 0 0 0 0 0 0 0 0 0 0 0 0 0 0 0 0 127 0" result="hardAlpha"/>
<feOffset dx="5" dy="20"/>
<feGaussianBlur stdDeviation="7.5"/>
<feComposite in2="hardAlpha" operator="out"/>
<feColorMatrix type="matrix" values="0 0 0 0 0.109804 0 0 0 0 0 0 0 0 0 0.294118 0 0 0 0.3 0"/>
<feBlend mode="normal" in2="BackgroundImageFix" result="effect1_dropShadow_270_199"/>
<feBlend mode="normal" in="SourceGraphic" in2="effect1_dropShadow_270_199" result="shape"/>
</filter>
</defs>
</svg>
