<svg width="312" height="70" viewBox="0 0 312 70" fill="none" xmlns="http://www.w3.org/2000/svg">
<path d="M125.03 43.3284C125.622 43.9648 126.097 44.6997 126.434 45.4998C126.751 46.2709 126.916 47.0954 126.921 47.9286C126.918 48.7809 126.752 49.6247 126.434 50.4157C126.114 51.2146 125.637 51.9415 125.03 52.5531C122.985 55.0167 120.441 57.0213 117.564 58.4357C114.59 59.8957 111.313 60.6394 107.997 60.6071C105.047 60.6241 102.125 60.039 99.4102 58.8875C96.7782 57.7808 94.3866 56.1756 92.3679 54.161C90.3499 52.1409 88.743 49.7508 87.6357 47.1223C86.4849 44.4087 85.9012 41.4896 85.9203 38.5436C85.9016 35.5976 86.4853 32.6787 87.6357 29.965C88.7386 27.3442 90.3463 24.9643 92.3679 22.9602C94.3983 20.9597 96.787 19.3565 99.4102 18.2337C102.119 17.0598 105.044 16.4626 107.997 16.4801C111.265 16.4458 114.491 17.2167 117.389 18.7243C120.203 20.188 122.703 22.1864 124.748 24.607C125.345 25.2392 125.82 25.9751 126.151 26.7783C126.471 27.5485 126.637 28.3736 126.639 29.2072C126.637 30.0596 126.472 30.904 126.151 31.6943C125.835 32.4952 125.358 33.2227 124.748 33.8317C124.073 34.5341 123.236 35.0626 122.311 35.3715C121.44 35.6517 120.518 35.7363 119.611 35.6193C118.702 35.5023 117.823 35.2173 117.018 34.7789C116.208 34.3379 115.483 33.7554 114.879 33.0593C114.018 32.0618 113.001 31.2104 111.867 30.5382C110.704 29.84 109.37 29.4768 108.012 29.4889C106.816 29.4841 105.633 29.7342 104.542 30.2225C103.473 30.6929 102.508 31.3717 101.706 32.2189C100.899 33.0769 100.257 34.0745 99.8098 35.1627C99.3462 36.2725 99.1076 37.4628 99.108 38.665C99.1053 39.8549 99.3441 41.033 99.8098 42.1286C100.268 43.2035 100.929 44.18 101.759 45.0043C102.58 45.8166 103.541 46.4748 104.596 46.9474C105.666 47.4355 106.83 47.6874 108.007 47.6857C109.493 47.6878 110.945 47.248 112.179 46.4227C113.389 45.6424 114.506 44.7265 115.507 43.6927C116.129 42.9677 116.926 42.4125 117.822 42.08C118.673 41.762 119.574 41.5975 120.483 41.5942C121.343 41.5895 122.197 41.7325 123.008 42.0169C123.774 42.2938 124.466 42.7425 125.03 43.3284V43.3284Z" fill="white"/>
<path d="M132.331 31.2136C132.29 30.0727 132.633 28.9508 133.306 28.0269C133.643 27.5937 134.081 27.2491 134.582 27.023C135.083 26.797 135.632 26.6963 136.181 26.7299C137.191 26.7577 138.163 27.1144 138.949 27.7452C139.757 28.2991 140.399 29.0614 140.806 29.9506C142.003 28.938 143.351 28.1185 144.803 27.5217C146.232 26.9717 147.754 26.6981 149.286 26.7154C150.44 26.6767 151.595 26.7828 152.722 27.0311C153.524 27.2629 154.299 27.5805 155.032 27.9783C156.089 28.5179 156.984 29.3276 157.625 30.3246C158.312 31.326 158.679 32.5115 158.677 33.725C158.683 34.5435 158.517 35.3542 158.19 36.1052C157.532 37.6063 156.332 38.8061 154.827 39.4668C154.076 39.7948 153.264 39.9603 152.444 39.9525C151.821 39.9468 151.2 39.8882 150.587 39.7776C149.718 39.6474 148.84 39.5889 147.961 39.6027C146.882 39.6027 146.203 40.0107 145.923 40.8268C145.63 41.7434 145.488 42.7017 145.504 43.6637L145.363 54.1028C145.368 54.9703 145.19 55.8292 144.842 56.6239C144.171 58.1779 142.93 59.4172 141.372 60.0875C140.577 60.4388 139.717 60.6191 138.847 60.6169C137.982 60.6224 137.125 60.447 136.332 60.1021C135.56 59.775 134.856 59.3071 134.256 58.7225C133.664 58.1284 133.189 57.4279 132.858 56.658C132.507 55.8636 132.328 55.0047 132.331 54.1369V31.2136Z" fill="white"/>
<path d="M160.963 43.6636C160.949 41.4018 161.402 39.1613 162.293 37.0815C164.024 33.0198 167.264 29.7824 171.334 28.0463C173.416 27.1707 175.653 26.7195 177.913 26.7195C180.173 26.7195 182.41 27.1707 184.492 28.0463C188.563 29.7824 191.802 33.0198 193.533 37.0815C194.414 39.1656 194.868 41.4043 194.868 43.666C194.868 45.9277 194.414 48.1665 193.533 50.2506C191.802 54.3123 188.563 57.5497 184.492 59.2858C182.41 60.1614 180.173 60.6126 177.913 60.6126C175.653 60.6126 173.416 60.1614 171.334 59.2858C167.264 57.5497 164.024 54.3123 162.293 50.2506C161.401 48.1693 160.948 45.927 160.963 43.6636V43.6636ZM174.122 43.6636C174.112 44.712 174.5 45.7253 175.208 46.5005C175.544 46.8863 175.958 47.1957 176.424 47.4078C176.89 47.6199 177.396 47.7297 177.908 47.7297C178.42 47.7297 178.927 47.6199 179.392 47.4078C179.858 47.1957 180.273 46.8863 180.608 46.5005C181.308 45.7204 181.695 44.7103 181.695 43.6636C181.695 42.6169 181.308 41.6069 180.608 40.8267C180.272 40.4423 179.857 40.1343 179.391 39.9231C178.926 39.712 178.42 39.6027 177.908 39.6027C177.397 39.6027 176.891 39.712 176.425 39.9231C175.959 40.1343 175.545 40.4423 175.208 40.8267C174.507 41.6052 174.125 42.6175 174.136 43.6636H174.122Z" fill="white"/>
<path d="M197.598 35.4056C197.578 34.5738 197.73 33.7468 198.043 32.9757C198.357 32.2045 198.825 31.5056 199.42 30.922C200.633 29.7155 202.264 29.0199 203.977 28.9789C204.304 27.0798 204.964 25.2529 205.927 23.582C206.825 22.0457 207.979 20.6726 209.338 19.521C210.679 18.3965 212.21 17.5197 213.861 16.9319C215.594 16.3193 217.416 15.9912 219.256 15.9603H219.533C221.136 15.9603 222.673 16.595 223.807 17.7246C224.94 18.8542 225.577 20.3863 225.577 21.9838C225.577 23.5814 224.94 25.1135 223.807 26.2431C222.673 27.3728 221.136 28.0074 219.533 28.0074C219.173 28.0026 218.817 28.0892 218.499 28.2591C218.181 28.4291 217.911 28.6767 217.716 28.9789H218.203C219.065 28.9622 219.921 29.1177 220.721 29.4364C221.521 29.7552 222.249 30.2306 222.862 30.8346C223.476 31.4371 223.964 32.1554 224.297 32.9477C224.63 33.74 224.801 34.5904 224.801 35.4493C224.801 36.3083 224.63 37.1586 224.297 37.9509C223.964 38.7431 223.476 39.4616 222.862 40.0641C222.244 40.658 221.514 41.1241 220.714 41.4359C219.915 41.7477 219.061 41.8989 218.203 41.8809H217.501C217.261 41.88 217.023 41.8338 216.799 41.7448V54.0687C216.815 54.9321 216.656 55.7899 216.331 56.5905C216.006 57.391 215.522 58.1178 214.908 58.7272C214.305 59.3586 213.576 59.8575 212.767 60.1921C211.959 60.5267 211.09 60.6895 210.215 60.6703C209.322 60.6771 208.437 60.4966 207.618 60.1408C206.06 59.4719 204.819 58.232 204.153 56.6773C203.797 55.859 203.617 54.9751 203.626 54.0833V41.8955C201.987 41.8009 200.445 41.0889 199.313 39.9038C198.74 39.3062 198.293 38.6002 197.999 37.8276C197.704 37.0551 197.568 36.2315 197.598 35.4056Z" fill="white"/>
<path d="M228.159 35.4056C228.14 34.5742 228.291 33.7477 228.604 32.9767C228.916 32.2058 229.384 31.5065 229.977 30.922C231.19 29.7159 232.821 29.0204 234.534 28.9789C234.863 27.0804 235.522 25.2538 236.483 23.582C237.381 22.0455 238.535 20.6724 239.895 19.521C241.236 18.3975 242.768 17.5208 244.417 16.9319C246.153 16.3188 247.976 15.9907 249.817 15.9603H250.095C251.698 15.9603 253.235 16.595 254.368 17.7246C255.501 18.8542 256.138 20.3863 256.138 21.9838C256.138 23.5814 255.501 25.1135 254.368 26.2431C253.235 27.3728 251.698 28.0074 250.095 28.0074C249.734 28.0031 249.377 28.0899 249.058 28.2597C248.74 28.4296 248.469 28.677 248.272 28.9789H248.76C249.621 28.9627 250.477 29.1186 251.277 29.4373C252.077 29.756 252.806 30.2311 253.419 30.8346C254.033 31.4371 254.521 32.1554 254.853 32.9477C255.186 33.74 255.358 34.5904 255.358 35.4493C255.358 36.3083 255.186 37.1586 254.853 37.9509C254.521 38.7431 254.033 39.4616 253.419 40.0641C252.8 40.6577 252.07 41.1238 251.271 41.4356C250.471 41.7473 249.618 41.8987 248.76 41.8809H248.058C247.817 41.8804 247.579 41.8343 247.356 41.7448V54.0687C247.372 54.9321 247.213 55.7899 246.888 56.5905C246.563 57.391 246.079 58.1178 245.465 58.7272C244.526 59.6608 243.328 60.293 242.025 60.5423C240.722 60.7916 239.374 60.6466 238.155 60.1262C237.384 59.7935 236.683 59.3189 236.088 58.7272C235.496 58.132 235.02 57.4319 234.685 56.6627C234.329 55.8444 234.15 54.9606 234.158 54.0687V41.8809C232.521 41.7861 230.981 41.074 229.85 39.8892C229.284 39.2913 228.842 38.5869 228.552 37.8171C228.261 37.0473 228.128 36.2274 228.159 35.4056V35.4056Z" fill="white"/>
<path d="M293.406 56.1722C293.446 57.3129 293.103 58.4343 292.431 59.3588C292.094 59.7924 291.656 60.1371 291.155 60.3632C290.654 60.5893 290.105 60.6897 289.556 60.6558C288.546 60.6308 287.573 60.2738 286.788 59.6405C285.978 59.0873 285.334 58.3251 284.926 57.4352C283.479 58.5155 281.855 59.3373 280.126 59.864C278.483 60.3854 276.771 60.6572 275.047 60.6704C272.848 60.7006 270.67 60.2461 268.668 59.3394C266.793 58.485 265.121 57.2451 263.76 55.701C262.38 54.1146 261.31 52.2839 260.607 50.3041C259.85 48.1922 259.471 45.9645 259.486 43.722V33.2876C259.482 32.4197 259.661 31.5607 260.013 30.7665C260.347 29.9971 260.822 29.2956 261.411 28.6972C262.007 28.1055 262.71 27.6309 263.482 27.2982C264.278 26.9522 265.137 26.7737 266.005 26.7737C266.872 26.7737 267.731 26.9522 268.527 27.2982C270.086 27.9685 271.328 29.21 271.997 30.7665C272.348 31.5607 272.527 32.4197 272.523 33.2876L272.664 43.722C272.653 44.7637 273.026 45.7731 273.712 46.5588C274.034 46.9507 274.442 47.2646 274.904 47.4766C275.365 47.6887 275.87 47.7934 276.378 47.783C276.895 47.7885 277.408 47.6819 277.88 47.4706C278.352 47.2592 278.772 46.9481 279.112 46.5588C279.838 45.7925 280.24 44.7763 280.233 43.722L280.374 33.2876C280.37 32.4197 280.549 31.5607 280.901 30.7665C281.565 29.2091 282.806 27.967 284.366 27.2982C285.162 26.9533 286.022 26.7752 286.89 26.7752C287.759 26.7752 288.618 26.9533 289.415 27.2982C290.974 27.9685 292.216 29.21 292.885 30.7665C293.236 31.5607 293.415 32.4197 293.411 33.2876V56.1867L293.406 56.1722Z" fill="white"/>
<path d="M298.821 22.5036C298.804 21.6402 298.964 20.7825 299.289 19.9819C299.614 19.1814 300.098 18.4545 300.711 17.8451C301.317 17.2153 302.048 16.7174 302.856 16.383C303.665 16.0486 304.534 15.8848 305.409 15.902C306.289 15.9005 307.16 16.0791 307.968 16.4267C309.555 17.0856 310.815 18.3451 311.472 19.9291C311.818 20.7384 311.997 21.6091 311.998 22.4891V53.9327C312.017 54.8067 311.853 55.6752 311.518 56.4829C311.182 57.2907 310.682 58.0202 310.049 58.6252C309.128 59.5565 307.949 60.1916 306.663 60.449C305.377 60.7064 304.043 60.5743 302.833 60.0695C301.623 59.5647 300.593 58.7104 299.874 57.6167C299.155 56.523 298.782 55.2399 298.801 53.9327L298.821 22.5036Z" fill="white"/>
<path d="M66.1533 18.9741C67.9388 17.1209 68.9344 14.6504 68.9312 12.0811C68.9312 9.43355 67.8761 6.89442 65.9979 5.02234C64.1197 3.15026 61.5723 2.09855 58.9161 2.09855C56.4883 2.09824 54.1437 2.98084 52.3222 4.58081C47.0548 1.57593 41.0903 -0.00328851 35.0212 5.14141e-06C30.4224 -0.000632833 25.8685 0.901694 21.6195 2.65541C17.3706 4.40913 13.5098 6.97992 10.2578 10.221C7.00568 13.462 4.42597 17.3099 2.66593 21.5447C0.905887 25.7796 -4.45413e-08 30.3185 0 34.9024C0 39.4865 0.905842 44.0256 2.66582 48.2607C4.4258 52.4959 7.00545 56.3441 10.2575 59.5855C13.5095 62.8269 17.3702 65.3981 21.6192 67.1524C25.8681 68.9066 30.4221 69.8095 35.0212 69.8095C39.62 69.8095 44.1738 68.9066 48.4225 67.1522C52.6712 65.3979 56.5316 62.8266 59.7832 59.5851C63.0348 56.3437 65.614 52.4955 67.3735 48.2604C69.1329 44.0253 70.0382 39.4862 70.0375 34.9024C70.0367 29.3601 68.7049 23.8984 66.1533 18.9741V18.9741ZM35.0212 62.2801C27.7364 62.2801 20.75 59.3957 15.5989 54.2614C10.4478 49.1271 7.55397 42.1634 7.55397 34.9024C7.55397 31.3073 8.26447 27.7474 9.64489 24.426C11.0253 21.1047 13.0486 18.0869 15.5992 15.5451C18.1499 13.0032 21.1779 10.987 24.5103 9.61168C27.8428 8.23635 31.4144 7.52875 35.0212 7.52939C39.9175 7.53022 44.7234 8.84402 48.9351 11.333C48.9351 11.5807 48.901 11.8188 48.901 12.0811C48.901 14.729 49.956 17.2686 51.8341 19.1415C53.7121 21.0143 56.2595 22.0672 58.9161 22.0685C59.0331 22.0685 59.1452 22.0685 59.2621 22.0685C61.3822 26.0228 62.4889 30.4382 62.4835 34.9218C62.4745 42.1799 59.5738 49.1372 54.4193 54.264C49.2649 59.3908 42.2786 62.2672 34.9968 62.2608L35.0212 62.2801Z" fill="white"/>
<path d="M35.0778 47.3033C42.1143 47.3033 47.8185 41.7155 47.8185 34.8226C47.8185 27.9297 42.1143 22.3419 35.0778 22.3419C28.0413 22.3419 22.337 27.9297 22.337 34.8226C22.337 41.7155 28.0413 47.3033 35.0778 47.3033Z" fill="white"/>
</svg>
